# xmcd
#
# Track frame offsets:
#	300
#	9879
#	21440
#	42235
#	60197
#	75563
#	86215
#	100526
#	113470
#	134480
#	143731
#	159905
#	170366
#	186429
#	197567
#	209517
#
# Disc length: 3032
#
# Revision: 2
# Processed by: cddbd v1.5.1PL0 Copyright (c) Steve Scherf et al.
# Submitted via: ExactAudioCopy v0.95a5
# Normalized: r0:DSETVAR1,TDELIM( - );r1:TRMNUM
#
DISCID=c80bd410
DTITLE=Various Artist - Deutsche Country Hits
DYEAR=1900
DGENRE=Country
TTITLE0=Bonanza - Ralf Paulsen
TTITLE1=Ich brauch' Country Music - THEO
TTITLE2=Er ist ein Kerl (der 30-Tonner Diesel) - Gunther Gabriel
TTITLE3=Ein Laster mit nem' Cowboyhut - Tennessee Ernest G.
TTITLE4=Auf meiner Ranch bin ich der König (El Rancho Grande) - Peter Hinnen
TTITLE5=Texas Rose - Medium Terzett
TTITLE6=Tom Dooley - Gus Backus
TTITLE7=Das alte Haus von Rocky Docky - Peter Kraus
TTITLE8=Viel zu gut gelebt - Tony Cayee's Countra Five
TTITLE9=Riders In The Sky - Ricky King
TTITLE10=Solange bis die Räder glüh'n - Tennessee Ernest G.
TTITLE11=Hello,  Marry-Lou - Peter Beil
TTITLE12=Setz' dich nicht gleich auf jedes Pferd - Harold Mc Gehrke
TTITLE13=Melodie (L.O.D.) - Lida Sunshine
TTITLE14=Moonlight - Tennessee Ernest G.
TTITLE15=Intercity Liner Nummer 4 - Gunther Gabriel
EXTD=
EXTT0=
EXTT1=
EXTT2=
EXTT3=
EXTT4=
EXTT5=
EXTT6=
EXTT7=
EXTT8=
EXTT9=
EXTT10=
EXTT11=
EXTT12=
EXTT13=
EXTT14=
EXTT15=
PLAYORDER=
